<?xml version="1.0" encoding="UTF-8"?>
<svg width="512pt" height="512pt" version="1.1" viewBox="0 0 512 512" xmlns="http://www.w3.org/2000/svg">
 <g fill="#BC2649">
  <path d="m512 256c0 141.39-114.61 256-256 256s-256-114.61-256-256 114.61-256 256-256 256 114.61 256 256" fill="#E5CDAF"/>
  <path d="m363.53 171.2c0-12.629-10.328-22.906-23.023-22.906-12.695 0-23.027 10.273-23.027 22.906 0 12.625 10.332 22.902 23.027 22.902 12.695 0 23.023-10.277 23.023-22.902zm-23.023 16.453c-9.1406 0-16.578-7.3789-16.578-16.453s7.4375-16.457 16.578-16.457c9.1406 0 16.574 7.3789 16.574 16.457 0 9.0703-7.4336 16.453-16.574 16.453z"/>
  <path d="m343.73 138.15v-7.8984c0-1.7812-1.4414-3.2227-3.2227-3.2227s-3.2227 1.4414-3.2227 3.2227v7.8984c0 1.7812 1.4414 3.2227 3.2227 3.2227 1.7773 0.003906 3.2227-1.4375 3.2227-3.2227z"/>
  <path d="m319.26 145.54-5.6211-5.5859c-1.2617-1.2578-3.3047-1.2461-4.5586 0.011719-1.2578 1.2617-1.25 3.3047 0.011719 4.5586l5.6211 5.5859c0.62891 0.625 1.4531 0.9375 2.2734 0.9375 0.82812 0 1.6562-0.31641 2.2852-0.94922 1.2578-1.2617 1.2539-3.3047-0.011719-4.5586z"/>
  <path d="m299.3 167.98c-1.7812 0-3.2227 1.4414-3.2227 3.2227s1.4414 3.2227 3.2227 3.2227h7.9492c1.7812 0 3.2227-1.4414 3.2227-3.2227s-1.4414-3.2227-3.2227-3.2227z"/>
  <path d="m309.09 197.88c-1.2617 1.2539-1.2695 3.2969-0.011719 4.5586 0.62891 0.63281 1.457 0.94922 2.2852 0.94922 0.82031 0 1.6445-0.3125 2.2734-0.9375l5.6211-5.5859c1.2617-1.2539 1.2695-3.2969 0.011719-4.5586-1.2578-1.2617-3.2969-1.2734-4.5586-0.011719z"/>
  <path d="m337.29 204.25v7.8984c0 1.7812 1.4414 3.2227 3.2227 3.2227s3.2227-1.4414 3.2227-3.2227v-7.8984c0-1.7812-1.4414-3.2227-3.2227-3.2227-1.7812-0.003906-3.2227 1.4375-3.2227 3.2227z"/>
  <path d="m367.37 202.45c0.62891 0.625 1.4531 0.9375 2.2734 0.9375 0.82812 0 1.6562-0.31641 2.2852-0.94922 1.2578-1.2617 1.25-3.3047-0.011719-4.5586l-5.6211-5.5859c-1.2617-1.2578-3.3047-1.2461-4.5586 0.011719-1.2578 1.2617-1.25 3.3047 0.011719 4.5586z"/>
  <path d="m381.71 174.43c1.7812 0 3.2227-1.4414 3.2227-3.2227s-1.4414-3.2227-3.2227-3.2227h-7.9492c-1.7812 0-3.2227 1.4414-3.2227 3.2227s1.4414 3.2227 3.2227 3.2227z"/>
  <path d="m366.3 150.12 5.6172-5.5859c1.2617-1.2578 1.2695-3.2969 0.011719-4.5586-1.2578-1.2617-3.2969-1.2734-4.5586-0.011718l-5.6172 5.5859c-1.2617 1.2578-1.2695 3.2969-0.011718 4.5586 0.62891 0.63281 1.457 0.94922 2.2852 0.94922 0.82031 0 1.6445-0.3125 2.2734-0.9375z"/>
  <path d="m130.06 297.5c-1.7773 0.085938-3.1523 1.5977-3.0664 3.375 0.085937 1.7773 1.5938 3.1484 3.375 3.0664 0.76172-0.058594 76.418-3.1719 130.48 38.352 54.18 41.613 114.51 42.684 120.5 42.684 0.1875 0.003907 0.32422 0 0.40234 0 1.7812-0.019531 3.207-1.4805 3.1914-3.2578-0.019531-1.7734-1.4609-3.1914-3.2266-3.1914h-0.035156c-0.76953 0.074218-62.852 0.17188-116.9-41.348-4.6641-3.582-9.4727-6.8164-14.359-9.7891 13.844-11.043 67.672-50.434 131.3-50.434 1.7812 0 3.2227-1.4414 3.2227-3.2227s-1.4414-3.2227-3.2227-3.2227c-61.562 0-114.08 35.559-132.25 49.449v-66.062c23.523-1.6797 42.164-21.449 42.164-45.57 0-25.07-20.129-45.473-44.953-45.715-1.4922-11.219-10.469-19.887-21.691-20.926-3.7891-8.8555-12.434-14.664-22.172-14.664-5.8477 0-11.453 2.1406-15.824 5.9648-4.3711-3.8203-9.9766-5.9648-15.824-5.9648-9.7305 0-18.375 5.8047-22.172 14.656-12.316 1.1016-22.004 11.543-22.004 24.219 0 3.6445 0.82812 7.2578 2.4062 10.547-1.5781 3.2891-2.4062 6.8984-2.4062 10.547 0 12.609 9.5938 23.012 21.828 24.199 3.6875 9.1055 12.402 15.074 22.352 15.074 4.4766 0 8.8047-1.2617 12.551-3.5664v79.621c-29.285-5.832-51.957-4.9023-53.664-4.8203zm155.13-89.172c0 21.664-17.469 39.289-38.945 39.289-21.473 0-38.941-17.625-38.941-39.289s17.469-39.289 38.941-39.289c21.477 0 38.945 17.625 38.945 39.289zm-114.02 11.484c-7.8516 0-14.664-5.0898-16.945-12.664-0.41016-1.3633-1.6641-2.2969-3.082-2.2969-9.7617-0.007812-17.699-8.0195-17.699-17.863 0-3.125 0.82812-6.2148 2.3945-8.9414 0.57031-0.99609 0.57031-2.2148 0-3.2109-1.5664-2.7227-2.3945-5.8125-2.3945-8.9414 0-9.8516 7.9453-17.867 17.488-17.875 1.4219 0.12891 2.9414-0.79688 3.4023-2.2148 2.3789-7.375 9.1484-12.332 16.836-12.332 5.125 0 10 2.2539 13.383 6.1875 1.2266 1.4258 3.6641 1.4219 4.8906-0.003906 3.375-3.9297 8.2539-6.1836 13.375-6.1836 7.6875 0 14.453 4.9531 16.836 12.328 0.42969 1.332 1.6875 2.2344 3.0859 2.2344 8.8164 0 16.043 6.4531 17.406 15.02-22.148 3.0156-39.293 22.145-39.293 45.273 0 3.9648 0.55469 7.793 1.5 11.461-4.9531-0.13281-9.6406-2.3477-12.91-6.1602-0.054687-0.0625-0.13672-0.085937-0.19141-0.14453-0.070312-0.070313-0.16016-0.11328-0.23438-0.17578-0.25-0.20703-0.49609-0.41016-0.78906-0.53125-0.19531-0.082032-0.41406-0.09375-0.625-0.13672-0.20312-0.039063-0.39062-0.13281-0.60156-0.13281-0.007812 0-0.015625 0.003907-0.023438 0.003907-0.007812 0-0.015624-0.003907-0.027343-0.003907-0.97656 0-1.8242 0.45703-2.4141 1.1445-3.3867 3.9141-8.2539 6.1602-13.367 6.1602zm19 2.8203c3.7695 2.3438 8.1328 3.6328 12.648 3.6328 0.53906 0 1.082-0.078125 1.625-0.11328 6.5078 15.441 21.219 26.512 38.578 27.75v69.215c-17.711-9.5938-36.133-15.621-52.852-19.414z"/>
  <path d="m228.79 261.35c-0.35156-1.3594-1.543-2.3359-2.9492-2.4102-0.57422-0.039062-14.422-0.69922-21.262 7.6406-6.8359 8.3398-3.4766 21.777-3.332 22.348 0.35156 1.3594 1.543 2.3359 2.9492 2.4102 0.089844 0.007812 0.48828 0.023437 1.1289 0.023437 3.5312 0 14.344-0.60547 20.133-7.668 6.8359-8.3359 3.4766-21.773 3.332-22.344zm-8.3203 18.258c-3.3516 4.0859-9.8438 5.043-13.414 5.2539-0.48828-3.5508-0.81641-10.133 2.5117-14.195 3.3516-4.0859 9.8438-5.043 13.414-5.2539 0.48828 3.5547 0.81641 10.133-2.5117 14.195z"/>
  <path d="m322.19 305.93c-0.57422-0.03125-14.418-0.69922-21.262 7.6406-6.8359 8.3398-3.4766 21.777-3.332 22.348 0.35156 1.3594 1.543 2.3359 2.9492 2.4102 0.089844 0.007813 0.48828 0.023437 1.1289 0.023437 3.5312 0 14.344-0.60547 20.133-7.668 6.8359-8.3398 3.4766-21.777 3.332-22.348-0.35547-1.3516-1.543-2.3281-2.9492-2.4062zm-5.3711 20.672c-3.3516 4.0859-9.8438 5.043-13.414 5.2539-0.48828-3.5508-0.81641-10.133 2.5117-14.195 3.3516-4.0859 9.8438-5.043 13.414-5.2539 0.48828 3.5547 0.81641 10.133-2.5117 14.195z"/>
  <path d="m308.43 256.67c4.1602 3.4102 9.5898 4.2812 14.059 4.2812 4.4844 0 8-0.87891 8.2891-0.94922 1.3594-0.35156 2.3359-1.543 2.4102-2.9492 0.035156-0.58594 0.69922-14.422-7.6406-21.262-8.3359-6.8398-21.77-3.4766-22.348-3.332-1.3594 0.35156-2.3359 1.543-2.4102 2.9492-0.035156 0.58203-0.69922 14.418 7.6406 21.262zm13.031-15.891c4.0859 3.3516 5.043 9.8438 5.2539 13.414-3.5547 0.5-10.129 0.82031-14.195-2.5117-4.0898-3.3555-5.0469-9.8438-5.2539-13.418 3.5508-0.48438 10.133-0.81641 14.195 2.5156z"/>
  <path d="m178.46 327.43c-1.3594 0.35156-2.3359 1.543-2.4102 2.9492-0.035157 0.58594-0.69922 14.422 7.6406 21.262 4.1602 3.4141 9.5898 4.2852 14.062 4.2852 4.4844 0 7.9961-0.87891 8.2852-0.94922 1.3594-0.35156 2.3359-1.543 2.4102-2.9492 0.035156-0.58594 0.69922-14.422-7.6406-21.262-8.332-6.8398-21.777-3.4805-22.348-3.3359zm9.3164 19.219c-4.0898-3.3516-5.043-9.8516-5.2539-13.422 3.5352-0.50391 10.098-0.83594 14.195 2.5234 4.0898 3.3516 5.043 9.8516 5.2539 13.422-3.5469 0.5-10.102 0.83203-14.195-2.5234z"/>
 </g>
</svg>
