<?xml version="1.0" encoding="UTF-8"?>
<svg width="1200pt" height="1200pt" version="1.1" viewBox="0 0 1200 1200" xmlns="http://www.w3.org/2000/svg" fill="#004e89">
 <g>
  <path d="m1000.2 284.41c0-47.004-38.438-85.242-85.688-85.242s-85.699 38.238-85.699 85.242c0 46.992 38.449 85.23 85.699 85.23s85.688-38.238 85.688-85.23zm-85.688 61.23c-34.02 0-61.699-27.469-61.699-61.23 0-33.773 27.68-61.242 61.699-61.242 34.02 0 61.688 27.469 61.688 61.242 0 33.762-27.668 61.23-61.688 61.23z"/>
  <path d="m926.51 161.4v-29.402c0-6.6328-5.3672-12-12-12-6.6328 0-12 5.3672-12 12v29.402c0 6.6328 5.3672 12 12 12 6.6328 0 12-5.3672 12-12z"/>
  <path d="m835.44 188.92-20.918-20.789c-4.6992-4.6758-12.293-4.6406-16.969 0.046875-4.6758 4.6992-4.6523 12.305 0.046874 16.969l20.918 20.789c2.3438 2.332 5.4023 3.4922 8.4609 3.4922 3.082 0 6.1641-1.1836 8.5078-3.5391 4.6758-4.6992 4.6523-12.305-0.046875-16.969z"/>
  <path d="m761.14 272.4c-6.6328 0-12 5.3672-12 12 0 6.6328 5.3672 12 12 12h29.578c6.6328 0 12-5.3672 12-12 0-6.6328-5.3672-12-12-12z"/>
  <path d="m797.6 383.67c-4.6992 4.6641-4.7227 12.27-0.046874 16.969 2.3438 2.3555 5.4258 3.5391 8.5078 3.5391 3.0586 0 6.1172-1.1602 8.4609-3.4922l20.918-20.789c4.6992-4.6641 4.7227-12.27 0.046875-16.969-4.6758-4.6992-12.27-4.7344-16.969-0.046876z"/>
  <path d="m902.51 407.41v29.402c0 6.6328 5.3672 12 12 12 6.6328 0 12-5.3672 12-12v-29.402c0-6.6328-5.3672-12-12-12-6.6328 0-12 5.3672-12 12z"/>
  <path d="m1014.5 400.69c2.3438 2.332 5.4023 3.4922 8.4609 3.4922 3.082 0 6.1641-1.1836 8.5078-3.5391 4.6758-4.6992 4.6523-12.305-0.046875-16.969l-20.918-20.789c-4.6992-4.6758-12.293-4.6406-16.969 0.046876-4.6758 4.6992-4.6523 12.305 0.046875 16.969z"/>
  <path d="m1067.9 296.41c6.6328 0 12-5.3672 12-12 0-6.6328-5.3672-12-12-12h-29.59c-6.6328 0-12 5.3672-12 12 0 6.6328 5.3672 12 12 12z"/>
  <path d="m1010.5 205.93 20.906-20.789c4.6992-4.6758 4.7227-12.27 0.046875-16.969s-12.27-4.7344-16.969-0.046875l-20.906 20.789c-4.6992 4.6758-4.7227 12.27-0.046875 16.969 2.3438 2.3555 5.4258 3.5391 8.5078 3.5391 3.0586 0 6.1172-1.1602 8.4609-3.4922z"/>
  <path d="m131.3 754.44c-6.6211 0.31641-11.73 5.9414-11.414 12.562 0.31641 6.6211 5.9297 11.719 12.562 11.414 2.8359-0.21094 284.4-11.801 485.6 142.73 201.63 154.88 426.15 158.86 448.46 158.86 0.69141 0 1.1953-0.011719 1.4883-0.011719 6.6328-0.070312 11.941-5.5078 11.871-12.129-0.070313-6.5859-5.4375-11.871-12-11.871h-0.12891c-2.8711 0.26953-233.91 0.63281-435.07-153.88-17.359-13.332-35.258-25.375-53.441-36.426 51.512-41.105 251.84-187.7 488.64-187.7 6.6328 0 12-5.3672 12-12s-5.3672-12-12-12c-229.11 0-424.57 132.34-492.18 184.03v-245.85c87.547-6.25 156.93-79.832 156.93-169.6 0-93.297-74.906-169.23-167.3-170.13-5.5469-41.746-38.961-74.008-80.727-77.871-14.109-32.965-46.289-54.574-82.523-54.574-21.762 0-42.621 7.9688-58.887 22.195-16.277-14.227-37.137-22.195-58.898-22.195-36.211 0-68.391 21.598-82.512 54.539-45.844 4.1016-81.902 42.961-81.902 90.141 0 13.57 3.082 27.012 8.9531 39.246-5.8711 12.234-8.9531 25.676-8.9531 39.246 0 46.922 35.707 85.641 81.234 90.059 13.723 33.891 46.16 56.098 83.18 56.098 16.656 0 32.762-4.7031 46.711-13.27v296.32c-108.97-21.691-193.35-18.238-199.7-17.938zm577.32-331.86c0 80.625-65.016 146.21-144.94 146.21-79.91 0-144.93-65.59-144.93-146.21s65.016-146.21 144.93-146.21c79.922 0 144.94 65.59 144.94 146.21zm-424.34 42.75c-29.227 0-54.574-18.938-63.07-47.133-1.5234-5.0742-6.1875-8.543-11.473-8.543-36.328-0.035156-65.871-29.848-65.871-66.48 0-11.637 3.082-23.133 8.9062-33.27 2.1211-3.7031 2.1211-8.25 0-11.953-5.8242-10.137-8.9062-21.633-8.9062-33.27 0-36.668 29.566-66.492 65.086-66.527 5.2969 0.48047 10.945-2.9648 12.656-8.25 8.8711-27.457 34.055-45.902 62.672-45.902 19.066 0 37.219 8.3906 49.805 23.027 4.5586 5.3086 13.641 5.2969 18.199-0.011719 12.562-14.625 30.715-23.016 49.781-23.016 28.605 0 53.789 18.434 62.66 45.879 1.5938 4.957 6.2812 8.3086 11.484 8.3086 32.812 0 59.711 24.012 64.785 55.895-82.426 11.227-146.24 82.41-146.24 168.5 0 14.754 2.0703 28.996 5.5859 42.656-18.43-0.49219-35.875-8.7422-48.055-22.922-0.19922-0.23438-0.50391-0.32422-0.71875-0.54297-0.25781-0.26562-0.59375-0.42188-0.875-0.66016-0.92969-0.76953-1.8398-1.5273-2.9414-1.9844-0.72266-0.3125-1.5469-0.34375-2.332-0.51172-0.75391-0.14844-1.457-0.48828-2.2383-0.48828-0.03125 0-0.058594 0.019531-0.089844 0.019531-0.035156 0-0.0625-0.019531-0.097656-0.019531-3.6406 0-6.793 1.7031-8.9922 4.2617-12.582 14.582-30.695 22.941-49.719 22.941zm70.711 10.484c14.027 8.7148 30.27 13.516 47.074 13.516 2.0078 0 4.0273-0.28906 6.0469-0.42578 24.223 57.461 78.961 98.672 143.58 103.28v257.59c-65.914-35.703-134.47-58.133-196.7-72.258z"/>
  <path d="m498.73 619.91c-1.3125-5.0625-5.7422-8.6953-10.969-8.9766-2.1328-0.14062-53.672-2.6016-79.125 28.441-25.441 31.031-12.938 81.047-12.398 83.168 1.3125 5.0625 5.7422 8.6953 10.969 8.9766 0.32812 0.023438 1.8164 0.09375 4.1953 0.09375 13.137 0 53.379-2.25 74.93-28.535 25.441-31.031 12.938-81.047 12.398-83.168zm-30.961 67.957c-12.469 15.211-36.633 18.773-49.922 19.547-1.8164-13.219-3.0352-37.711 9.3516-52.828 12.469-15.211 36.633-18.773 49.922-19.547 1.8164 13.219 3.0352 37.711-9.3516 52.828z"/>
  <path d="m846.34 785.82c-2.1328-0.11719-53.66-2.6016-79.125 28.441-25.441 31.031-12.938 81.047-12.398 83.168 1.3125 5.0625 5.7422 8.6953 10.969 8.9766 0.32812 0.023438 1.8164 0.09375 4.1953 0.09375 13.137 0 53.379-2.25 74.93-28.535 25.441-31.031 12.938-81.047 12.398-83.168-1.3125-5.0625-5.7422-8.6953-10.969-8.9766zm-19.992 76.934c-12.469 15.211-36.633 18.773-49.922 19.547-1.8164-13.219-3.0352-37.711 9.3516-52.828 12.469-15.211 36.633-18.773 49.922-19.547 1.8164 13.219 3.0352 37.711-9.3516 52.828z"/>
  <path d="m795.13 602.5c15.48 12.691 35.695 15.938 52.324 15.938 16.688 0 29.777-3.2695 30.844-3.5391 5.0625-1.3125 8.6953-5.7422 8.9766-10.969 0.12891-2.1797 2.6016-53.672-28.441-79.125-31.02-25.453-81.023-12.938-83.168-12.398-5.0625 1.3125-8.6953 5.7422-8.9766 10.969-0.12891 2.168-2.6016 53.66 28.441 79.125zm48.492-59.133c15.211 12.469 18.773 36.633 19.547 49.922-13.23 1.8633-37.699 3.0469-52.828-9.3516-15.211-12.48-18.773-36.633-19.547-49.934 13.207-1.8047 37.711-3.0352 52.828 9.3633z"/>
  <path d="m311.44 865.82c-5.0625 1.3125-8.6953 5.7422-8.9766 10.969-0.12891 2.1797-2.6016 53.672 28.441 79.125 15.48 12.703 35.695 15.949 52.336 15.949 16.688 0 29.766-3.2695 30.832-3.5391 5.0625-1.3125 8.6953-5.7422 8.9766-10.969 0.12891-2.1797 2.6016-53.672-28.441-79.125-31.008-25.441-81.035-12.949-83.168-12.41zm34.676 71.531c-15.223-12.48-18.773-36.668-19.547-49.957 13.16-1.875 37.582-3.1055 52.828 9.3984 15.223 12.48 18.773 36.668 19.547 49.957-13.195 1.8516-37.594 3.0938-52.828-9.3984z"/>
 </g>
</svg>
